<?xml version="1.0" encoding="UTF-8"?>
<svg width="185px" height="65px" viewBox="0 0 185 65" version="1.1" xmlns="http://www.w3.org/2000/svg" xmlns:xlink="http://www.w3.org/1999/xlink">
    <!-- Generator: sketchtool 55.2 (78181) - https://sketchapp.com -->
    <title>63E7A9B8-5D68-4123-999C-2B20D4BC6970@1x</title>
    <desc>Created with sketchtool.</desc>
    <g id="UI-design" stroke="none" stroke-width="1" fill="none" fill-rule="evenodd">
        <g id="0_elements" transform="translate(-368.000000, -6180.000000)">
            <g id="Group-6-Copy" transform="translate(369.000000, 6181.000000)">
                <path d="M0.910176605,38.2867011 C0.972442208,38.0186645 1.03470781,37.7506279 1.09697341,37.4835914 C1.55847141,37.3755766 2.01905374,37.2655616 2.47963606,37.151546 C2.49978082,35.4533139 3.52441625,35.6193366 4.21300056,34.4861818 C5.33378141,32.6459303 5.99123292,30.3446158 7.13124286,28.4943629 C7.74382651,27.5012272 9.19699579,26.5310946 9.62552965,25.3869383 C10.1529559,23.9777457 9.85353163,22.1424949 9.95242406,20.6222871 C10.1328112,17.8329059 11.0182647,15.7546219 12.490663,13.4873121 C13.6398297,11.7180703 14.4978131,10.5369089 16.2394186,9.64978763 C21.3003302,7.07343554 27.1304051,5.38020414 32.5740669,4.66810683 C42.0585833,3.42793735 51.3544715,1.6486942 60.8710364,0.821581164 C76.3339663,-0.523602668 92.6512169,-0.291570959 108.015254,2.07375229 C118.01804,3.61396277 127.751619,6.45935162 137.739754,8.20459012 C144.647574,9.41275523 151.499537,11.6660632 158.113426,14.2644183 C161.212055,15.4805845 164.326251,15.5405927 167.139191,17.5838719 C169.487886,19.2911052 172.317309,21.3633884 174.214578,23.7057085 C178.288397,28.7383963 183.314513,35.0782627 182.975715,42.4312675 C182.870413,44.7185801 183.2495,47.490959 182.658893,49.6962604 C181.669968,53.3947658 177.901068,56.9032453 175.19984,58.7384961 C169.452175,62.6440298 162.265992,62.1019557 155.897503,62.4790073 C148.606018,62.9100662 141.166194,63.1240954 133.868299,62.9250682 C119.785285,62.5400156 105.733403,59.6636225 91.6970881,58.7144928 C83.7875252,58.1794197 76.0162286,58.9415238 68.1295574,58.9395236 C62.1392402,58.9365231 56.2514781,57.3393049 50.2483414,57.15728 C42.1574757,56.9132466 34.1297913,56.828235 26.1304927,55.4830512 C20.7152166,54.5719267 13.9914472,56.3851745 8.89574016,54.4299073 C9.22446591,52.5876555 7.56984909,52.2056033 7.23654498,50.5633789 C6.82083051,48.5140988 8.24195133,47.439952 8.36648253,45.5997005 C8.51756819,43.3773968 7.50208946,40.8960577 5.98757024,40.4109914 C4.31189299,39.8729179 1.78097937,40.3209791 0,40.25397" id="Stroke-1" stroke="#FFFFFF" stroke-width="2"></path>
                <path d="M38.224,34.728 L37.792,33.288 C37.6213325,32.7119971 37.4533342,32.1333362 37.288,31.552 C37.1226658,30.9706638 36.9600008,30.3866696 36.8,29.8 L36.736,29.8 C36.5866659,30.3973363 36.4293342,30.9839971 36.264,31.56 C36.0986658,32.1360029 35.9306675,32.7119971 35.76,33.288 L35.328,34.728 L38.224,34.728 Z M38.592,35.992 L34.944,35.992 L34.048,39 L32.416,39 L35.872,28.52 L37.728,28.52 L41.184,39 L39.488,39 L38.592,35.992 Z M41.712,31.176 L43.296,31.176 L44.128,35.464 C44.202667,35.8373352 44.2666664,36.2079982 44.32,36.576 C44.3733336,36.9440018 44.4266664,37.3146648 44.48,37.688 L44.544,37.688 C44.6720006,36.962663 44.8159992,36.2213371 44.976,35.464 L45.808,31.8 L47.056,31.8 L47.92,35.464 C48.0053338,35.8373352 48.0826663,36.2079982 48.152,36.576 C48.2213337,36.9440018 48.293333,37.3146648 48.368,37.688 L48.432,37.688 C48.506667,37.3146648 48.5679998,36.9440018 48.616,36.576 C48.6640002,36.2079982 48.7199997,35.8373352 48.784,35.464 L49.616,31.176 L51.088,31.176 L49.52,39 L47.632,39 L46.832,35.4 C46.757333,35.0266648 46.690667,34.6560018 46.632,34.288 C46.573333,33.9199982 46.506667,33.5333354 46.432,33.128 L46.368,33.128 C46.3146664,33.4480016 46.258667,33.7893315 46.2,34.152 C46.141333,34.5146685 46.0693338,34.9359976 45.984,35.416 L45.2,39 L43.344,39 L41.712,31.176 Z M52.24,35.096 C52.24,34.4559968 52.3519989,33.8826692 52.576,33.376 C52.8000011,32.8693308 53.0986648,32.4373351 53.472,32.08 C53.8453352,31.7226649 54.2719976,31.4506676 54.752,31.264 C55.2320024,31.0773324 55.7279974,30.984 56.24,30.984 C56.8160029,30.984 57.3253311,31.0746658 57.768,31.256 C58.2106689,31.4373342 58.5866651,31.690665 58.896,32.016 C59.2053349,32.341335 59.4399992,32.7306644 59.6,33.184 C59.7600008,33.6373356 59.84,34.1359973 59.84,34.68 C59.84,34.8400008 59.8320001,34.9919993 59.816,35.136 C59.7999999,35.2800007 59.7813334,35.3999995 59.76,35.496 L53.872,35.496 C53.9253336,36.2640038 54.2106641,36.8639978 54.728,37.296 C55.2453359,37.7280022 55.8986627,37.944 56.688,37.944 C57.1146688,37.944 57.5119982,37.8853339 57.88,37.768 C58.2480018,37.6506661 58.6079982,37.4853344 58.96,37.272 L59.52,38.28 C59.1146646,38.5360013 58.6586692,38.7519991 58.152,38.928 C57.6453308,39.1040009 57.088003,39.192 56.48,39.192 C55.8933304,39.192 55.3413359,39.0986676 54.824,38.912 C54.3066641,38.7253324 53.8560019,38.4560018 53.472,38.104 C53.0879981,37.7519982 52.7866678,37.3226692 52.568,36.816 C52.3493322,36.3093308 52.24,35.7360032 52.24,35.096 Z M58.368,34.408 C58.368,33.7039965 58.1866685,33.1653352 57.824,32.792 C57.4613315,32.4186648 56.9440034,32.232 56.272,32.232 C55.6853304,32.232 55.162669,32.4186648 54.704,32.792 C54.245331,33.1653352 53.9626672,33.7039965 53.856,34.408 L58.368,34.408 Z M62.624,36.952 C63.0720022,37.2613349 63.5413309,37.5093324 64.032,37.696 C64.5226691,37.8826676 65.0933301,37.976 65.744,37.976 C66.4160034,37.976 66.9066651,37.8746677 67.216,37.672 C67.5253349,37.4693323 67.68,37.2133349 67.68,36.904 C67.68,36.6159986 67.4933352,36.3653344 67.12,36.152 C66.7466648,35.9386656 66.1280043,35.7253344 65.264,35.512 C64.8799981,35.4159995 64.5093351,35.2986674 64.152,35.16 C63.7946649,35.0213326 63.482668,34.8586676 63.216,34.672 C62.949332,34.4853324 62.7360008,34.2773345 62.576,34.048 C62.4159992,33.8186655 62.336,33.5600014 62.336,33.272 C62.336,32.9413317 62.4079993,32.6373347 62.552,32.36 C62.6960007,32.0826653 62.9119986,31.8426677 63.2,31.64 C63.4880014,31.4373323 63.8399979,31.2773339 64.256,31.16 C64.6720021,31.0426661 65.1519973,30.984 65.696,30.984 C66.3146698,30.984 66.9039972,31.087999 67.464,31.296 C68.0240028,31.504001 68.5013314,31.741332 68.896,32.008 L68.16,33 C67.8079982,32.7653322 67.4293354,32.5733341 67.024,32.424 C66.6186646,32.2746659 66.1813357,32.2 65.712,32.2 C65.0506634,32.2 64.5893346,32.295999 64.328,32.488 C64.0666654,32.680001 63.936,32.9146653 63.936,33.192 C63.936,33.4906682 64.1493312,33.735999 64.576,33.928 C65.0026688,34.120001 65.5519966,34.3013325 66.224,34.472 C67.2053382,34.7173346 67.9599974,35.0133316 68.488,35.36 C69.0160026,35.7066684 69.28,36.1893302 69.28,36.808 C69.28,37.1386683 69.2000008,37.4479986 69.04,37.736 C68.8799992,38.0240014 68.6480015,38.2773322 68.344,38.496 C68.0399985,38.7146678 67.6666689,38.8853327 67.224,39.008 C66.7813311,39.1306673 66.2720029,39.192 65.696,39.192 C64.9493296,39.192 64.2453366,39.0720012 63.584,38.832 C62.9226634,38.5919988 62.3520024,38.3066683 61.872,37.976 L62.624,36.952 Z M71.296,35.096 C71.296,34.4453301 71.4026656,33.8640026 71.616,33.352 C71.8293344,32.8399974 72.1173315,32.4080018 72.48,32.056 C72.8426685,31.7039982 73.2586643,31.4373342 73.728,31.256 C74.1973357,31.0746658 74.6879974,30.984 75.2,30.984 C75.7120026,30.984 76.2026643,31.0746658 76.672,31.256 C77.1413357,31.4373342 77.5573315,31.7039982 77.92,32.056 C78.2826685,32.4080018 78.5706656,32.8399974 78.784,33.352 C78.9973344,33.8640026 79.104,34.4453301 79.104,35.096 C79.104,35.7466699 78.9973344,36.3253308 78.784,36.832 C78.5706656,37.3386692 78.2826685,37.7679982 77.92,38.12 C77.5573315,38.4720018 77.1413357,38.7386658 76.672,38.92 C76.2026643,39.1013342 75.7120026,39.192 75.2,39.192 C74.6879974,39.192 74.1973357,39.1013342 73.728,38.92 C73.2586643,38.7386658 72.8426685,38.4720018 72.48,38.12 C72.1173315,37.7679982 71.8293344,37.3386692 71.616,36.832 C71.4026656,36.3253308 71.296,35.7466699 71.296,35.096 Z M72.928,35.096 C72.928,35.9386709 73.1306646,36.6159974 73.536,37.128 C73.9413354,37.6400026 74.4959965,37.896 75.2,37.896 C75.9040035,37.896 76.4586646,37.6400026 76.864,37.128 C77.2693354,36.6159974 77.472,35.9386709 77.472,35.096 C77.472,34.2533291 77.2693354,33.5760026 76.864,33.064 C76.4586646,32.5519974 75.9040035,32.296 75.2,32.296 C74.4959965,32.296 73.9413354,32.5519974 73.536,33.064 C73.1306646,33.5760026 72.928,34.2533291 72.928,35.096 Z M80.864,31.176 L82.08,31.176 L82.208,32.2 L82.256,32.2 C82.4373342,31.8479982 82.6586654,31.5573345 82.92,31.328 C83.1813346,31.0986655 83.5359978,30.984 83.984,30.984 C84.7626706,30.984 85.247999,31.4266622 85.44,32.312 C85.6533344,31.9173314 85.8986653,31.5973346 86.176,31.352 C86.4533347,31.1066654 86.8106645,30.984 87.248,30.984 C87.7920027,30.984 88.2133318,31.1946646 88.512,31.616 C88.8106682,32.0373354 88.96,32.6426627 88.96,33.432 L88.96,39 L87.456,39 L87.456,33.56 C87.456,32.759996 87.2106691,32.36 86.72,32.36 C86.4746654,32.36 86.2613342,32.4479991 86.08,32.624 C85.8986658,32.8000009 85.7173342,33.0693315 85.536,33.432 L85.536,39 L84.288,39 L84.288,33.56 C84.288,32.759996 84.0320026,32.36 83.52,32.36 C83.2746654,32.36 83.0666675,32.4479991 82.896,32.624 C82.7253325,32.8000009 82.5493342,33.0693315 82.368,33.432 L82.368,39 L80.864,39 L80.864,31.176 Z M90.64,35.096 C90.64,34.4559968 90.7519989,33.8826692 90.976,33.376 C91.2000011,32.8693308 91.4986648,32.4373351 91.872,32.08 C92.2453352,31.7226649 92.6719976,31.4506676 93.152,31.264 C93.6320024,31.0773324 94.1279974,30.984 94.64,30.984 C95.2160029,30.984 95.7253311,31.0746658 96.168,31.256 C96.6106689,31.4373342 96.9866651,31.690665 97.296,32.016 C97.6053349,32.341335 97.8399992,32.7306644 98,33.184 C98.1600008,33.6373356 98.24,34.1359973 98.24,34.68 C98.24,34.8400008 98.2320001,34.9919993 98.216,35.136 C98.1999999,35.2800007 98.1813334,35.3999995 98.16,35.496 L92.272,35.496 C92.3253336,36.2640038 92.6106641,36.8639978 93.128,37.296 C93.6453359,37.7280022 94.2986627,37.944 95.088,37.944 C95.5146688,37.944 95.9119982,37.8853339 96.28,37.768 C96.6480018,37.6506661 97.0079982,37.4853344 97.36,37.272 L97.92,38.28 C97.5146646,38.5360013 97.0586692,38.7519991 96.552,38.928 C96.0453308,39.1040009 95.488003,39.192 94.88,39.192 C94.2933304,39.192 93.7413359,39.0986676 93.224,38.912 C92.7066641,38.7253324 92.2560019,38.4560018 91.872,38.104 C91.4879981,37.7519982 91.1866678,37.3226692 90.968,36.816 C90.7493322,36.3093308 90.64,35.7360032 90.64,35.096 Z M96.768,34.408 C96.768,33.7039965 96.5866685,33.1653352 96.224,32.792 C95.8613315,32.4186648 95.3440034,32.232 94.672,32.232 C94.0853304,32.232 93.562669,32.4186648 93.104,32.792 C92.645331,33.1653352 92.3626672,33.7039965 92.256,34.408 L96.768,34.408 Z M111.216,40.216 C111.216,40.5893352 111.421331,40.8906655 111.832,41.12 C112.242669,41.3493345 112.837329,41.464 113.616,41.464 C114.032002,41.464 114.407998,41.4240004 114.744,41.344 C115.080002,41.2639996 115.367999,41.157334 115.608,41.024 C115.848001,40.890666 116.031999,40.7386675 116.16,40.568 C116.288001,40.3973325 116.352,40.216001 116.352,40.024 C116.352,39.682665 116.210668,39.4560006 115.928,39.344 C115.645332,39.2319994 115.221336,39.176 114.656,39.176 L113.28,39.176 C113.034665,39.176 112.816001,39.1680001 112.624,39.152 C112.431999,39.1359999 112.250668,39.1013336 112.08,39.048 C111.759998,39.2293342 111.536001,39.415999 111.408,39.608 C111.279999,39.800001 111.216,40.0026656 111.216,40.216 Z M109.872,40.408 C109.872,40.0986651 109.981332,39.7973348 110.2,39.504 C110.418668,39.2106652 110.730665,38.9466678 111.136,38.712 L111.136,38.648 C110.922666,38.5306661 110.736001,38.368001 110.576,38.16 C110.415999,37.951999 110.336,37.6826683 110.336,37.352 C110.336,37.0959987 110.418666,36.8373346 110.584,36.576 C110.749334,36.3146654 110.981332,36.0826677 111.28,35.88 L111.28,35.816 C111.002665,35.6133323 110.768001,35.3440017 110.576,35.008 C110.383999,34.6719983 110.288,34.2693357 110.288,33.8 C110.288,33.3626645 110.373332,32.9706684 110.544,32.624 C110.714668,32.2773316 110.943999,31.9813346 111.232,31.736 C111.520001,31.4906654 111.853331,31.3040006 112.232,31.176 C112.610669,31.0479994 113.013331,30.984 113.44,30.984 C113.877336,30.984 114.271998,31.0479994 114.624,31.176 L117.84,31.176 L117.84,32.376 L115.888,32.376 C116.048001,32.5466675 116.191999,32.7573321 116.32,33.008 C116.448001,33.2586679 116.512,33.5386651 116.512,33.848 C116.512,34.2746688 116.432001,34.6533317 116.272,34.984 C116.111999,35.3146683 115.893335,35.5946655 115.616,35.824 C115.338665,36.0533345 115.013335,36.2266661 114.64,36.344 C114.266665,36.4613339 113.866669,36.52 113.44,36.52 C113.247999,36.52 113.042668,36.4986669 112.824,36.456 C112.605332,36.4133331 112.389334,36.3493338 112.176,36.264 C111.813332,36.4986678 111.632,36.7706651 111.632,37.08 C111.632,37.3680014 111.765332,37.5759994 112.032,37.704 C112.298668,37.8320006 112.682664,37.896 113.184,37.896 L114.848,37.896 C115.872,37.896 116.631998,38.0426652 117.128,38.336 C117.624002,38.6293348 117.872,39.1119966 117.872,39.784 C117.872,40.1573352 117.768001,40.5093317 117.56,40.84 C117.351999,41.1706683 117.056002,41.4613321 116.672,41.712 C116.287998,41.9626679 115.824003,42.1599993 115.28,42.304 C114.735997,42.4480007 114.128003,42.52 113.456,42.52 C112.346661,42.52 111.472003,42.3413351 110.832,41.984 C110.191997,41.6266649 109.872,41.1013368 109.872,40.408 Z M113.44,35.496 C113.888002,35.496 114.271998,35.3466682 114.592,35.048 C114.912002,34.7493318 115.072,34.333336 115.072,33.8 C115.072,33.2879974 114.912002,32.8773349 114.592,32.568 C114.271998,32.2586651 113.888002,32.104 113.44,32.104 C112.991998,32.104 112.608002,32.2586651 112.288,32.568 C111.967998,32.8773349 111.808,33.2879974 111.808,33.8 C111.808,34.333336 111.967998,34.7493318 112.288,35.048 C112.608002,35.3466682 112.991998,35.496 113.44,35.496 Z M126.56,39 L125.264,39 L125.136,37.704 L125.072,37.704 C124.687998,38.1520022 124.269336,38.5119986 123.816,38.784 C123.362664,39.0560014 122.837336,39.192 122.24,39.192 C121.311995,39.192 120.634669,38.9226694 120.208,38.384 C119.781331,37.8453306 119.568,37.0586718 119.568,36.024 L119.568,31.176 L121.152,31.176 L121.152,35.816 C121.152,36.5093368 121.274665,37.018665 121.52,37.344 C121.765335,37.669335 122.186664,37.832 122.784,37.832 C123.189335,37.832 123.559998,37.7333343 123.896,37.536 C124.232002,37.3386657 124.591998,37.0053357 124.976,36.536 L124.976,31.176 L126.56,31.176 L126.56,39 Z M129.392,40.888 C129.488,40.9200002 129.594666,40.9466666 129.712,40.968 C129.829334,40.9893334 129.946666,41 130.064,41 C130.586669,41 131.007998,40.8586681 131.328,40.576 C131.648002,40.2933319 131.898666,39.9333355 132.08,39.496 L132.288,38.952 L128.72,31.176 L130.304,31.176 L132.064,35.256 C132.213334,35.6080018 132.362666,35.9813314 132.512,36.376 C132.661334,36.7706686 132.815999,37.1599981 132.976,37.544 L133.04,37.544 C133.168001,37.1706648 133.301333,36.7866686 133.44,36.392 C133.578667,35.9973314 133.711999,35.6186685 133.84,35.256 L135.392,31.176 L136.896,31.176 L133.552,39.496 C133.391999,39.9120021 133.210668,40.290665 133.008,40.632 C132.805332,40.973335 132.568001,41.2666654 132.296,41.512 C132.023999,41.7573346 131.712002,41.946666 131.36,42.08 C131.007998,42.213334 130.602669,42.28 130.144,42.28 C129.951999,42.28 129.762668,42.2666668 129.576,42.24 C129.389332,42.2133332 129.221334,42.1733336 129.072,42.12 L129.392,40.888 Z M139.424,36.952 C139.872002,37.2613349 140.341331,37.5093324 140.832,37.696 C141.322669,37.8826676 141.89333,37.976 142.544,37.976 C143.216003,37.976 143.706665,37.8746677 144.016,37.672 C144.325335,37.4693323 144.48,37.2133349 144.48,36.904 C144.48,36.6159986 144.293335,36.3653344 143.92,36.152 C143.546665,35.9386656 142.928004,35.7253344 142.064,35.512 C141.679998,35.4159995 141.309335,35.2986674 140.952,35.16 C140.594665,35.0213326 140.282668,34.8586676 140.016,34.672 C139.749332,34.4853324 139.536001,34.2773345 139.376,34.048 C139.215999,33.8186655 139.136,33.5600014 139.136,33.272 C139.136,32.9413317 139.207999,32.6373347 139.352,32.36 C139.496001,32.0826653 139.711999,31.8426677 140,31.64 C140.288001,31.4373323 140.639998,31.2773339 141.056,31.16 C141.472002,31.0426661 141.951997,30.984 142.496,30.984 C143.11467,30.984 143.703997,31.087999 144.264,31.296 C144.824003,31.504001 145.301331,31.741332 145.696,32.008 L144.96,33 C144.607998,32.7653322 144.229335,32.5733341 143.824,32.424 C143.418665,32.2746659 142.981336,32.2 142.512,32.2 C141.850663,32.2 141.389335,32.295999 141.128,32.488 C140.866665,32.680001 140.736,32.9146653 140.736,33.192 C140.736,33.4906682 140.949331,33.735999 141.376,33.928 C141.802669,34.120001 142.351997,34.3013325 143.024,34.472 C144.005338,34.7173346 144.759997,35.0133316 145.288,35.36 C145.816003,35.7066684 146.08,36.1893302 146.08,36.808 C146.08,37.1386683 146.000001,37.4479986 145.84,37.736 C145.679999,38.0240014 145.448002,38.2773322 145.144,38.496 C144.839998,38.7146678 144.466669,38.8853327 144.024,39.008 C143.581331,39.1306673 143.072003,39.192 142.496,39.192 C141.74933,39.192 141.045337,39.0720012 140.384,38.832 C139.722663,38.5919988 139.152002,38.3066683 138.672,37.976 L139.424,36.952 Z M151.264,29.944 L151.216,28.28 L152.784,28.28 L152.736,29.944 L152.528,35.192 L151.472,35.192 L151.264,29.944 Z M150.72,37.848 C150.72,37.4426646 150.845332,37.1200012 151.096,36.88 C151.346668,36.6399988 151.647998,36.52 152,36.52 C152.352002,36.52 152.653332,36.6399988 152.904,36.88 C153.154668,37.1200012 153.28,37.4426646 153.28,37.848 C153.28,38.2533354 153.154668,38.5786654 152.904,38.824 C152.653332,39.0693346 152.352002,39.192 152,39.192 C151.647998,39.192 151.346668,39.0693346 151.096,38.824 C150.845332,38.5786654 150.72,38.2533354 150.72,37.848 Z" id="Awesomeguys!" fill="#FFFFFF" fill-rule="nonzero"></path>
            </g>
        </g>
    </g>
</svg>