<?xml version="1.0" encoding="UTF-8"?>
<svg width="150px" height="154px" viewBox="0 0 150 154" version="1.1" xmlns="http://www.w3.org/2000/svg" xmlns:xlink="http://www.w3.org/1999/xlink">
    <!-- Generator: sketchtool 55.2 (78181) - https://sketchapp.com -->
    <title>5F0C369A-FDD9-4BE4-8152-304B40B37148@1x</title>
    <desc>Created with sketchtool.</desc>
    <g id="UI-design" stroke="none" stroke-width="1" fill="none" fill-rule="evenodd">
        <g id="Homepage" transform="translate(-732.000000, -953.000000)">
            <g id="Group-17" transform="translate(734.000000, 955.000000)">
                <path d="M87.7111542,102.936803 L87.4960937,103.551357 C91.4779713,102.570685 96.0789624,103.139475 100.301968,102.25687 L100.047806,102.492231 C103.110789,91.5413892 100.06084,81.6562112 100.419274,71.0126466 L100.745123,71.3787643 C100.517029,70.8753525 100.093425,70.358865 100.119493,69.7966128 C100.230282,69.6266296 100.399723,69.9142935 100.464893,70.0973523 C100.256349,66.7957552 99.4286925,64.0106455 99.7610587,67.9790999 C99.8653304,68.6132681 100.295451,68.900932 100.608267,68.5413521 C100.94715,76.9162946 101.246931,85.8469514 101.859528,94.463793 C101.722671,94.8691376 101.448958,94.9410536 101.103557,94.8233729 C104.212159,102.786433 97.4410122,110.671039 95.7596301,116.496233 C96.0724454,116.89504 96.4308796,115.927443 96.6133551,116.74467 C97.8972011,114.763712 96.9261704,112.246653 98.5228316,110.742955 L98.796545,111.141762 C99.611168,109.925728 97.9623709,110.448753 99.0572243,109.278484 C99.604651,108.879678 99.4808283,109.644602 99.604651,109.402703 C100.067357,107.774787 101.057939,107.068703 101.670535,105.793828 C103.697317,100.13208 102.074588,101.295811 102.04852,98.8049029 C102.954381,98.0399784 102.133241,95.1633394 103,93.9211543 C102.6546,93.0450869 102.758872,92.1624818 102.165826,91.8225153 C102.52426,85.8731026 102.374369,79.92369 102.152792,73.9546639 C100.119493,71.5814366 106.258492,66.5603938 97.519216,66.3511837 C98.4250768,68.4498227 98.8486808,71.0976382 98.757443,74.020042 C100.139044,79.5510345 98.0340578,86.5464977 98.7313751,93.1758433 L98.5554165,93.1627676 C98.9790205,95.3333226 99.1419451,98.4780121 98.9073337,101.060449 C102.165826,98.9944996 98.6531713,101.014685 98.8421638,100.798937 C85.3976247,103.400988 63.722134,93.3523643 53.9140722,110.867174 C51.5288559,112.861208 46.6606684,121.818016 48.8308243,120.026654 C49.6324134,130.264874 56.3318735,123.36094 59.7272225,125.773394 C67.9842419,126.29642 76.6062125,125.897613 85.4171756,124.746957 C85.3976247,124.916941 85.5475153,125.00847 85.0913264,125.073848 C91.8689904,127.303243 93.0029457,116.705443 91.7190997,113.789577 L91.8885413,113.802653 C91.1521221,107.807476 91.1195371,101.603088 90.8262728,95.4902302 C91.4453864,90.6783975 90.735035,79.4987319 82.7843139,83.7940771 C75.7003516,84.0490519 68.6359404,85.9450186 61.1153402,84.5916907 C57.407176,84.3497915 53.4252984,83.7940771 49.7366851,85.4546824 C47.0060686,88.2659433 48.954647,92.6789692 48.2051938,96.1636252 L47.8663106,96.1113227 C47.5925972,102.021508 47.677318,107.892467 47.253714,113.599981 C48.1595749,116.502771 45.0444562,119.58862 49.3391491,122.439108 C50.9162593,119.784755 52.7149471,118.549108 54.6765594,115.783611 C57.381108,110.226468 64.2760777,107.500198 63.9762964,99.9817098 C63.6308962,93.6988685 63.1225714,87.461792 63.6699981,81.3358583 C64.1001191,77.2954879 68.0363778,55.2303585 61.1348911,68.900932 C55.6606241,74.0854202 50.0755683,78.465757 49.1762245,87.31796 C56.3579415,86.8537751 63.4875226,85.7292707 70.7604773,84.8793546 C77.1406052,84.7812874 84.9740207,85.6246656 90.1159215,84.3759428 C92.7292323,79.1195386 95.7987321,72.5817225 99.1354282,67.2010998 C102.094139,63.4941581 88.8320756,63.7556707 83.976922,62.7292336 L84.2180505,63.1672673 C81.7872152,61.7224099 78.6851306,64.8932507 77.1927411,62.9188302 L77.4534205,62.8403765 C76.1630576,61.8466284 74.3904377,65.1024608 73.6149166,63.9387296 L73.3998561,64.4159901 C71.8227458,64.5402086 73.2173805,63.8733514 72.0052214,63.6641413 C71.5490325,63.7229816 71.8227458,64.5402086 70.8712661,64.2525447 C70.6822735,62.2781243 67.0066942,64.6448137 66.9089395,62.428494 C67.7822154,62.4350319 65.5599237,61.5589645 67.5019851,61.1078552 C66.9480414,60.8790316 64.2891117,60.9574854 64.5367571,61.9054687 C64.3021456,62.9057546 63.2724621,63.7687463 64.8756403,64.5467465 L65.2014895,63.8275867 C65.7423992,64.5598221 65.6185765,64.1937044 65.8075691,64.7428809 C67.8995211,64.8540238 68.1797515,65.91315 69.6786579,66.3707972 L69.6721409,66.2858055 C70.7018245,65.4293516 72.1160101,65.9589147 72.9306332,66.0896711 L73.2434485,66.5015535 C73.7257053,67.3514696 75.6482158,64.8736373 74.9900003,66.3184946 C79.2521082,65.9589147 84.1202957,66.0504442 88.8451095,66.3446459 C89.5359099,65.8281584 92.4685529,66.5734695 91.4844883,65.4620407 C92.6119266,66.730377 96.0985133,67.2076376 97.4149442,67.2272511 L97.095612,67.4103099 C98.3012541,68.260226 99.0702583,67.9333352 99.8327455,67.6522091 L100.399723,67.4626124 C95.2252374,59.4407121 98.9073337,65.5666458 97.6625896,63.9191161 C97.4866311,64.2917716 97.1477479,64.6578893 96.4699815,65.0109314 C97.5713519,65.8608475 94.4040974,68.6851841 95.3295092,70.5680751 L94.4757842,70.4700079 C92.6249606,73.9742773 89.8161402,78.8253369 88.5779132,81.2704801 C89.2752305,83.9444469 86.5837159,81.1135725 82.732178,82.7153375 C80.4968523,82.3884467 76.8603749,81.7542785 73.7387393,82.4538248 L74.0385206,82.2511525 C70.5193489,82.4015223 66.0812824,82.4995895 63.741685,83.6371695 C62.6598655,82.0877071 61.1674761,82.447287 59.6490187,81.9831021 C57.3354891,82.7741778 52.6237093,82.695724 49.0849867,83.4606485 C53.0864152,92.8358768 51.4571691,83.3298922 53.1124831,85.8992539 C55.6215222,81.0939591 57.374591,75.6610339 61.3499516,71.9410165 C63.1225714,70.2215709 65.1102517,66.8938224 66.9936603,64.3179229 C57.407176,66.3642593 64.0023643,68.18831 61.1023062,70.8753525 L61.0501703,70.7119071 C61.4086045,72.1502266 62.4252541,73.9088991 62.9400959,75.4191347 C62.8358241,75.5433532 62.6598655,75.4975885 62.7185184,75.2099246 C62.6924505,77.1385803 61.3238837,79.1979924 61.5650121,81.1266481 L61.2196119,80.7932195 C61.6888348,82.623808 60.3789209,84.5786151 61.187027,86.7426322 L60.9198306,86.8537751 L61.3043327,88.2332543 C60.9589326,88.2005652 60.4310568,88.1548005 60.5483625,87.4160273 C59.4730601,97.7327011 63.6699981,101.83845 55.2109522,109.173879 C52.8387698,113.488838 50.7533347,114.842166 47.4557405,120.163948 C52.8127018,122.700621 48.4007033,113.985712 49.7497191,111.043695 L50.0690513,111.723628 L49.5411756,108.21282 L49.8735418,108.552787 C50.3362477,104.263979 49.4303869,100.034012 50.0169155,95.8824991 C50.1798401,95.9151882 50.4665874,96.5558942 50.7077158,96.0001798 C49.9778136,92.9404819 52.1610034,90.9922127 50.2710779,89.3969855 C50.3688326,89.2466158 50.8185046,89.1485485 50.9618782,89.4754393 C49.5476926,84.3955562 63.8068548,87.9259769 71.1514964,87.5729348 C76.4498049,86.8014725 90.6307633,81.5908331 88.8190416,88.3705484 L88.4671244,88.3443971 C90.2006423,97.9419112 89.1579248,108.199745 89.3925362,118.150301 C90.4352538,123.478621 89.3534343,122.981747 84.0290579,122.922907 L83.8987182,122.478335 C76.9255447,124.145478 69.3137068,121.138083 61.9560312,122.602554 L62.47739,122.01415 C61.3108497,122.909831 58.0653914,121.523814 58.4629275,123.138655 L57.1855985,122.609091 C52.5324715,122.497949 45.2921017,125.590336 51.0987349,119.013293 L51.2616595,119.52978 C51.7113315,117.980318 52.3695469,116.130116 53.1972039,115.24751 L53.1972039,115.835914 C57.2312174,112.606233 59.5577809,107.369442 63.7612359,103.969778 L63.748202,104.878534 C64.7648515,102.001895 69.9458543,103.047946 73.2629994,102.864887 L73.0544559,103.18524 L74.7879738,102.760282 L74.8140417,103.433677 C79.2260403,103.590584 83.4034274,103.126399 87.7111542,102.936803" id="Fill-34" fill="#FFFFFF"></path>
                <g id="Group-16">
                    <g id="Group-9" transform="translate(44.000000, 52.000000)" fill="#F6BBD4">
                        <path d="M7.32154748,100 C7.07070688,100 6.80846442,99.9316041 6.58042751,99.8062116 C5.80510199,99.3844367 5.52005585,98.4382932 5.94192414,97.6745387 C6.22697029,97.15017 6.51201643,96.614402 6.78566073,96.0900332 C6.75145519,95.8050502 6.78566073,95.5200672 6.89967919,95.2350842 C13.1592925,80.8149444 20.2284369,65.2206747 28.5631862,49.4098178 C36.6584968,32.0486535 45.8255808,14.9496735 59.0175164,0.518134333 C59.5762068,-0.108828267 60.52256,-0.177224187 61.1724653,0.369943173 C61.8223705,0.894311894 61.9363889,1.84045545 61.4347077,2.51301533 C49.7934231,18.1528824 39.9308265,34.5907018 31.390844,50.8005349 C28.9850545,55.9530275 26.6818817,61.1397181 24.3901107,66.2808114 C19.5101207,77.2241586 14.4705048,88.5322841 8.71257267,99.179249 C8.41612468,99.6922184 7.89163978,100 7.32154748,100" id="Fill-78"></path>
                        <path d="M37.5797242,69.0263071 C38.9249572,71.8558039 40.3914817,74.752938 41.9682712,77.1991563 C40.7994622,74.4485698 39.1895932,71.6754375 37.5797242,69.0263071 Z M45.2210888,85 C44.8902938,85 44.5594987,84.8759981 44.2838362,84.6618131 C39.6306532,80.9304847 36.0911467,73.1747326 32.9596207,66.3320851 C31.9782622,64.1676891 31.0410097,62.1160221 30.1809427,60.4589065 C29.0452132,58.2832377 27.9094837,56.1075688 26.7627277,53.9319 C22.3411012,45.4321368 17.7540772,36.6392783 13.3214241,27.9478759 C11.6784756,24.701282 10.1678451,21.251776 8.71234712,17.9262718 C6.39678212,12.6392838 4.00403161,7.19447529 0.993797097,2.4034947 C0.530684095,1.68202939 0.740187596,0.712560377 1.4458836,0.239098767 C2.1626061,-0.211817053 3.0888321,-0.00890493438 3.54091861,0.712560377 C6.09906661,4.77080276 8.18307512,9.20105069 10.1568186,13.6087528 C9.09827463,10.6214355 8.12794262,7.58902663 7.24582262,4.53407195 C7.00323962,3.69987768 7.46635262,2.83186473 8.28231362,2.59513393 C9.07622162,2.34713022 9.92526213,2.82059184 10.1678451,3.6547861 C15.8354661,23.3598074 25.3513357,41.2498926 36.2896237,60.943641 C37.0945582,62.3865716 38.0428372,63.9196854 39.0462487,65.5542553 C42.4203577,71.0441554 46.2465533,77.2667937 46.7427458,83.2977928 C46.7868518,83.9290749 46.4781098,84.5152655 45.9488378,84.8083608 C45.7283078,84.9323626 45.4636718,85 45.2210888,85 L45.2210888,85 Z" id="Fill-79"></path>
                    </g>
                    <path d="M0,24 C20.9979027,42.216186 12.5254266,37.4371478 23,43" id="Path-3" stroke="#F6BBD4" stroke-width="4" stroke-linecap="round"></path>
                    <path d="M120,26 C120.33998,15.3548999 136.043124,3.94487836 143,0" id="Path-5" stroke="#F6BBD4" stroke-width="4" stroke-linecap="round"></path>
                    <path d="M128,70.0236155 C139.453656,70.0236155 133.446294,69.7591878 146,71" id="Path-6" stroke="#F6BBD4" stroke-width="4" stroke-linecap="round"></path>
                    <path d="M128,102 C135.52356,108.846696 140.535039,118.864468 146,128" id="Path-7" stroke="#F6BBD4" stroke-width="4" stroke-linecap="round"></path>
                </g>
            </g>
        </g>
    </g>
</svg>