<?xml version="1.0" encoding="UTF-8"?>
<svg width="60px" height="243px" viewBox="0 0 60 243" version="1.1" xmlns="http://www.w3.org/2000/svg" xmlns:xlink="http://www.w3.org/1999/xlink">
    <!-- Generator: sketchtool 55.2 (78181) - https://sketchapp.com -->
    <title>7DECA602-8C1A-4132-98D8-58842B6D1CF2@1x</title>
    <desc>Created with sketchtool.</desc>
    <g id="UI-design" stroke="none" stroke-width="1" fill="none" fill-rule="evenodd">
        <g id="Homepage" transform="translate(-1114.000000, -1657.000000)" fill="#FFFFFF">
            <path d="M1161.52749,1657 L1160.64248,1657.07281 L1159.90286,1657.36321 L1157.24615,1657.21759 L1152.00669,1657.87204 L1148.53979,1658.59847 L1145.14345,1659.03449 L1143.59363,1659.47051 L1142.78174,1659.3977 L1141.60003,1659.83373 L1139.01814,1659.97935 L1137.46832,1660.41537 L1131.93386,1660.92336 L1129.5713,1661.64979 L1129.20404,1661.35939 L1128.46526,1661.06898 L1126.76751,1661.21377 L1123.88806,1660.99534 L1123.15099,1661.21377 L1121.60202,1660.77691 L1118.13257,1660.41537 L1116.50964,1660.05132 L1115.77001,1659.6153 L1115.03378,1659.3977 L1114.59,1659.47051 L1114.29585,1659.83373 L1114.14793,1661.14096 L1114.44293,1662.95786 L1114.07226,1663.90187 L1114.07226,1668.40604 L1114.29585,1669.27809 L1114.14793,1674.28941 L1114.44293,1675.30792 L1114.14793,1676.25277 L1114.29585,1678.57766 L1114.14793,1678.94004 L1114.36896,1679.81208 L1114.14793,1681.48253 L1114.14793,1684.75144 L1114.44293,1685.62432 L1114.22189,1686.93155 L1114.44293,1687.65881 L1114.22189,1688.53086 L1114.07226,1690.2013 L1114.29585,1694.70547 L1114,1698.19281 L1114.29585,1891.64528 L1114.07226,1895.27824 L1114.22189,1897.0943 L1114.44293,1897.89354 L1114.22189,1898.69277 L1114.29585,1899.492 L1115.55067,1900 L1116.43482,1899.92719 L1117.17445,1899.63679 L1117.54171,1899.05598 L1117.68964,1898.32872 L1117.54171,1896.43985 L1117.54171,1892.95251 L1117.68964,1696.01353 L1117.98464,1695.72313 L1118.94446,1695.35908 L1120.71616,1695.5047 L1121.74909,1695.72313 L1125.8077,1696.15832 L1131.85905,1695.79511 L1132.30282,1695.57751 L1133.11386,1695.86792 L1138.94417,1694.9239 L1142.33966,1694.12383 L1143.37344,1694.19664 L1145.14345,1693.97821 L1147.65308,1693.32459 L1149.27516,1693.32459 L1152.00669,1692.67098 L1159.16578,1692.16298 L1166.10383,1692.16298 L1167.0628,1692.45338 L1167.50572,1692.45338 L1167.94865,1692.23495 L1169.05384,1692.74462 L1170.75159,1693.17981 L1171.71225,1693.25262 L1173.41,1693.75978 L1173.85292,1693.68864 L1173.18811,1691.29094 L1171.78537,1688.31243 L1168.83365,1681.91855 L1165.80798,1675.37989 L1165.6609,1674.58149 L1165.80798,1673.92788 L1167.50572,1670.94853 L1167.72676,1670.07648 L1168.76054,1668.76925 L1170.45744,1665.64513 L1171.49036,1664.3379 L1172.0064,1663.10264 L1173.70415,1660.26975 L1174,1659.3977 L1173.70415,1659.10646 L1172.52329,1658.59847 L1170.67847,1658.16245 L1166.7661,1657.43602 L1165.88194,1657.43602 L1165.14316,1657.65445 L1163.44542,1657.14562 L1161.52749,1657 Z M1164.283,1659.5435 L1164.544,1659.3695 L1164.717,1659.6305 L1164.369,1659.6305 L1164.283,1659.5435 Z M1154.37,1660.283 L1154.804,1660.37 L1154.63,1660.631 L1154.196,1660.717 L1154.37,1660.283 Z M1164.2395,1660.3265 L1164.7605,1660.6735 L1164.2395,1660.6735 L1164.2395,1660.3265 Z M1141.326,1661.63 L1141.674,1661.63 L1141.674,1661.37 L1141.326,1661.37 L1141.326,1661.63 Z M1137.326,1661.674 L1137.674,1661.674 L1137.674,1661.326 L1137.326,1661.326 L1137.326,1661.674 Z M1162.152,1661.1965 L1162.673,1661.2825 L1162.848,1661.7175 L1162.327,1661.8035 L1162.152,1661.1965 Z M1128.065,1661.1095 L1128.586,1661.2825 L1128.935,1661.7175 L1128.586,1661.8905 L1128.065,1661.8905 L1128.065,1661.1095 Z M1146.196,1661.63 L1146.369,1661.109 L1146.804,1661.717 L1146.63,1661.891 L1146.196,1661.63 Z M1125.4565,1661.1955 L1125.7165,1661.5435 L1125.2835,1661.8045 L1125.4565,1661.1955 Z M1120.283,1663.109 L1120.717,1663.283 L1120.717,1663.718 L1120.283,1663.891 L1120.283,1663.109 Z M1133.326,1661.6305 L1133.674,1661.6305 L1133.674,1661.3695 L1133.326,1661.3695 L1133.326,1661.6305 Z M1156.196,1663.1965 L1156.717,1663.2825 L1156.804,1663.6305 L1156.196,1663.8035 L1156.196,1663.1965 Z M1133.1945,1663.7165 L1133.1095,1663.2825 L1133.4555,1663.1095 L1133.8905,1663.2825 L1133.6285,1663.8905 L1133.1945,1663.7165 Z M1126,1663.45391 L1126.19182,1663.00035 L1126.38587,1662.63582 L1126.38587,1662 L1126.67584,1662.36348 L1127.06394,1663.63617 L1128.129,1663.45391 L1128.80706,1664.18191 L1129,1664.63652 L1128.61078,1664.90887 L1127.6461,1665 L1126,1663.45391 Z M1121.153,1663.5435 L1121.326,1663.1095 L1121.847,1663.2825 L1121.326,1663.8905 L1121.153,1663.5435 Z M1117.11,1663.4135 L1117.543,1663.3265 L1117.89,1663.6735 L1117.282,1663.6735 L1117.11,1663.4135 Z M1130.14317,1663.75 L1130,1663.25 L1130.14317,1663 L1130.71476,1663.25 L1131,1663.80012 L1130.23752,1664 L1130.14317,1663.75 Z M1134.3685,1663.2395 L1134.8035,1663.2395 L1134.8035,1663.7605 L1134.1965,1663.7605 L1134.3685,1663.2395 Z M1118.239,1664.6295 L1118.153,1664.1095 L1118.674,1664.1955 L1118.847,1664.5425 L1118.674,1664.8905 L1118.239,1664.6295 Z M1161.283,1664.283 L1161.717,1664.283 L1161.717,1664.717 L1161.283,1664.283 Z M1120,1666.625 L1120.11132,1666.25 L1120.611,1665.80069 L1120.50032,1665.35052 L1120.50032,1664.45017 L1120.66667,1664.15035 L1121,1664 L1120.83365,1665.95017 L1120.611,1666.70017 L1120.389,1667 L1120,1666.625 Z M1125.16768,1664.91739 L1123,1664.33333 L1123.33408,1664.08357 L1123.75072,1664 L1124.83264,1664.16619 L1125.74944,1664.66667 L1126,1665 L1125.16768,1664.91739 Z M1129,1666.48292 L1129.33352,1665.65488 L1129.85824,1665.139 L1129.71484,1664.51827 L1129.76154,1664 L1130,1664.31096 L1130,1665.65488 L1129.76154,1665.75854 L1129.38077,1666.79269 L1129.04725,1667 L1129,1666.48292 Z M1118.283,1664.3695 L1118.717,1664.6305 L1118.283,1664.6305 L1118.283,1664.3695 Z M1122.023,1665.57914 L1122.456,1665 L1122.977,1665.21043 L1122.456,1665.84233 L1122.023,1666 L1122.023,1665.57914 Z M1126,1665.2825 L1126.40077,1665.1095 L1126.86769,1665.2825 L1127,1665.8035 L1126.13308,1665.8905 L1126,1665.2825 Z M1137.2395,1665.76491 L1137.1535,1665 L1137.7605,1665 L1137.8465,1665.35298 L1137.6735,1666 L1137.2395,1665.76491 Z M1148.283,1665.46621 L1148.196,1665.13287 L1148.63,1665 L1148.543,1665.39939 L1148.804,1665.73272 L1148.63,1666 L1148.37,1666 L1148.283,1665.46621 Z M1161.13441,1665.717 L1161,1665.196 L1161.80031,1665.37 L1162,1665.804 L1161.59985,1665.804 L1161.13441,1665.717 Z M1132,1665.50041 L1132.33461,1665.50041 L1132.75072,1665 L1133,1665 L1132.41611,1666 L1132,1665.50041 Z M1128.37,1665.673 L1128.63,1665.673 L1128.63,1665.327 L1128.37,1665.327 L1128.37,1665.673 Z M1153.283,1665.457 L1153.717,1665.283 L1153.545,1665.717 L1153.283,1665.457 Z M1124.109,1665.1525 L1124.891,1665.4995 L1124.109,1665.8475 L1124.109,1665.1525 Z M1158.1965,1665.631 L1158.5425,1665.283 L1158.8035,1665.717 L1158.1965,1665.631 Z M1117,1667.7165 L1117.07542,1667.2835 L1117.38332,1667.1095 L1117.84561,1667.1095 L1118,1667.7165 L1117.4614,1667.8905 L1117,1667.7165 Z M1124.282,1667.83397 L1124.11,1667.5 L1124.197,1667 L1124.89,1667.5 L1124.89,1668 L1124.282,1667.83397 Z M1133.326,1667.674 L1133.674,1667.674 L1133.674,1667.326 L1133.326,1667.326 L1133.326,1667.674 Z M1129.196,1667.5005 L1129.631,1667.2395 L1129.804,1667.6745 L1129.455,1667.7605 L1129.196,1667.5005 Z M1121,1667.5855 L1121.23593,1667.2395 L1121.53017,1667.0655 L1121.82305,1667.2395 L1122,1667.7605 L1121.53017,1667.7605 L1121.23593,1667.9345 L1121,1667.5855 Z M1130.37,1667.3705 L1130.803,1667.4575 L1130.197,1667.6295 L1130.37,1667.3705 Z M1129.1965,1667.2395 L1129.6305,1667.4115 L1129.8035,1667.7605 L1129.3695,1667.7605 L1129.1965,1667.2395 Z M1122,1670.82323 L1122.09479,1670.38334 L1122.52329,1669.94142 L1122.52329,1669.23637 L1122.76219,1668 L1123,1668.44192 L1123,1668.97122 L1122.57151,1670.47071 L1122.52329,1670.91162 L1122.19123,1671 L1122,1670.82323 Z M1116.2395,1668.674 L1116.4155,1668.239 L1116.7605,1668.761 L1116.2395,1668.674 Z M1118.04607,1668.9045 L1118.0911,1668.2854 L1118,1668.0472 L1118.36387,1668 L1118.68168,1668 L1118.86387,1668.09495 L1119,1668.38035 L1118.86387,1668.6191 L1118.31832,1668.80955 L1118.18168,1669 L1118.04607,1668.9045 Z M1125,1668.4555 L1125.28536,1668.0225 L1125.64309,1668.0225 L1126,1668.2825 L1125.71299,1668.8035 L1125.21464,1668.9775 L1125,1668.4555 Z M1128.196,1668.6295 L1128.804,1668.2825 L1128.63,1668.7175 L1128.196,1668.6295 Z M1121.30612,1669.84182 L1121.30612,1669.52606 L1121,1669.05273 L1121.46229,1669 L1121.84738,1669.05273 L1121.76841,1669.36848 L1122,1669.94727 L1121.69299,1670 L1121.30612,1669.84182 Z M1152.196,1669.6305 L1152.283,1669.1095 L1152.631,1669.3695 L1152.804,1669.8905 L1152.196,1669.6305 Z M1117.37,1669.63 L1117.63,1669.63 L1117.63,1669.37 L1117.37,1669.37 L1117.37,1669.63 Z M1133.45554,1671.54659 L1134.66681,1670.37636 L1135.72886,1669.61921 L1137.16703,1669.20614 L1139.21346,1669 L1140.04686,1669.20614 L1141.48591,1669.82534 L1142.46941,1671.13352 L1142.84815,1671.95966 L1143,1672.64784 L1142.69805,1674.30011 L1141.94057,1676.08954 L1141.03124,1677.39693 L1140.34881,1677.94716 L1138.53102,1680.01171 L1137.69674,1681.25091 L1136.40955,1682.14602 L1135.87983,1683.31625 L1134.2872,1684.82977 L1133.98612,1685.17386 L1133.30369,1685.79307 L1132.47029,1686 L1131.25901,1684.69261 L1130.4256,1684.34852 L1130.04599,1683.65955 L1128.30413,1681.73295 L1125.72799,1679.53045 L1124.9705,1678.22227 L1124.36487,1677.74102 L1123.15185,1675.46955 L1123,1674.50625 L1123.0768,1673.68011 L1123.75923,1672.23477 L1124.28807,1671.61557 L1125.57614,1670.65148 L1127.01518,1669.82534 L1128.52928,1669.82534 L1130.34968,1670.23841 L1131.10542,1670.58329 L1132.62126,1671.88989 L1133.45554,1671.54659 Z M1114.2395,1669.7165 L1114.7605,1669.7165 L1114.7605,1669.2835 L1114.2395,1669.2835 L1114.2395,1669.7165 Z M1121.283,1669.196 L1121.717,1669.196 L1121.543,1669.804 L1121.283,1669.196 Z M1150.195,1669.5435 L1150.284,1669.0225 L1150.805,1669.0225 L1150.629,1669.9775 L1150.195,1669.9775 L1150.195,1669.5435 Z M1117.33359,1671.56228 L1117.06825,1671.37509 L1117,1671.06192 L1117.39954,1671 L1117.73236,1671 L1118,1671.18719 L1117.73236,1671.87473 L1117.33359,1672 L1117.33359,1671.56228 Z M1160.283,1671.76 L1160.283,1671.153 L1160.717,1671.847 L1160.283,1671.76 Z M1145.283,1672.543 L1145.37,1672.196 L1145.717,1672.457 L1145.544,1672.804 L1145.283,1672.543 Z M1122.1965,1672.5435 L1122.5425,1672.2835 L1122.8035,1672.7165 L1122.1965,1672.5435 Z M1120.21464,1672.8475 L1120,1672.4135 L1120.35691,1672.0655 L1121,1672.5005 L1120.64227,1672.9345 L1120.21464,1672.8475 Z M1150.197,1672.2835 L1150.803,1672.2835 L1150.718,1672.7165 L1150.282,1672.7165 L1150.197,1672.2835 Z M1161.3265,1672.2395 L1161.6735,1672.5875 L1161.5005,1672.7605 L1161.3265,1672.2395 Z M1117.33355,1673.33333 L1117,1673.16699 L1117.27721,1673 L1118,1673 L1117.77721,1673.55534 L1117.3886,1674 L1117.33355,1673.33333 Z M1120.23489,1675.65035 L1120,1675 L1120.76578,1675 L1121,1675.44988 L1121,1675.75 L1120.35302,1676 L1120.23489,1675.65035 Z M1150.153,1675.66667 L1150.499,1675 L1150.847,1675.33333 L1150.673,1675.79954 L1150.24,1676 L1150.153,1675.66667 Z M1149.3245,1676.674 L1149.2395,1676.153 L1149.7605,1676.153 L1149.7605,1676.847 L1149.3245,1676.674 Z M1117.326,1676.9284 L1117.066,1676.64362 L1117.066,1676.21481 L1117.24,1676 L1117.675,1676.14321 L1117.934,1677 L1117.326,1676.9284 Z M1156.196,1677.5435 L1156.368,1677.1095 L1156.717,1677.2835 L1156.804,1677.7165 L1156.368,1677.8905 L1156.196,1677.5435 Z M1118,1677.152 L1118.46188,1677.066 L1119,1677.152 L1118.92287,1677.674 L1118.61525,1677.934 L1118.15337,1677.934 L1118,1677.152 Z M1121.37,1679.84588 L1121.109,1679 L1121.717,1679.07706 L1121.891,1679.53853 L1121.717,1680 L1121.37,1679.84588 Z M1122.1095,1680.78601 L1122.4545,1680 L1122.8905,1680 L1122.4545,1681 L1122.1095,1680.78601 Z M1161.282,1680.8895 L1161.196,1680.4575 L1161.371,1680.0225 L1161.804,1680.3695 L1161.717,1680.9775 L1161.282,1680.8895 Z M1120.283,1681.414 L1120.717,1681.24 L1120.717,1681.76 L1120.283,1681.414 Z M1146.1955,1681.7695 L1146.0225,1681.38387 L1146.1095,1681 L1146.6295,1681.15248 L1146.9775,1681.61525 L1146.6295,1682 L1146.1955,1681.7695 Z M1121.196,1683.153 L1121.717,1683.24 L1121.804,1683.674 L1121.368,1683.847 L1121.196,1683.153 Z M1156.4115,1683.63 L1156.3265,1683.196 L1156.6735,1683.369 L1156.6735,1683.804 L1156.4115,1683.63 Z M1121,1683.804 L1121.15439,1683.196 L1121.69388,1683.022 L1122,1683.804 L1121.46229,1683.978 L1121,1683.804 Z M1154.196,1684.7165 L1154.284,1684.1095 L1154.717,1684.3685 L1154.804,1684.8905 L1154.196,1684.7165 Z M1129.457,1684.2395 L1129.717,1684.2395 L1129.63,1684.7605 L1129.283,1684.7605 L1129.457,1684.2395 Z M1122.327,1684.673 L1122.673,1684.673 L1122.673,1684.327 L1122.327,1684.327 L1122.327,1684.673 Z M1141.1965,1685.153 L1141.8905,1685.5 L1141.6305,1685.847 L1141.1095,1685.847 L1141.1965,1685.153 Z M1145.1965,1687.6305 L1145.1965,1687.3705 L1145.2835,1687.1955 L1145.6305,1687.1955 L1145.8035,1687.3705 L1145.6305,1687.8045 L1145.1965,1687.6305 Z M1128,1687.5875 L1128.2103,1687.0655 L1128.47394,1687.1535 L1129,1687.9345 L1128,1687.5875 Z M1136.3265,1688.283 L1136.6735,1688.543 L1136.3265,1688.717 L1136.3265,1688.283 Z M1129.3695,1688.1965 L1129.6305,1688.4565 L1129.5445,1688.8035 L1129.3695,1688.1965 Z M1137.1525,1688.631 L1137.0655,1688.109 L1137.5865,1688.197 L1137.9345,1688.544 L1137.5865,1688.891 L1137.1525,1688.631 Z M1133.0665,1688.66743 L1133.4145,1688 L1133.8485,1688.26728 L1133.9335,1688.53379 L1133.2405,1689 L1133.0665,1688.66743 Z M1126.283,1689.369 L1126.717,1689.283 L1126.544,1689.717 L1126.283,1689.369 Z M1132.1095,1689.6735 L1132.1095,1689.1515 L1132.5435,1689.0665 L1132.8905,1689.1515 L1132.7165,1689.7605 L1132.2815,1689.9335 L1132.1095,1689.6735 Z M1140.283,1689.239 L1140.717,1689.239 L1140.544,1689.761 L1140.283,1689.761 L1140.283,1689.239 Z M1124.21528,1689.6745 L1124,1689.2405 L1124.28513,1689.0655 L1124.5719,1689.2405 L1125,1689.2405 L1124.85538,1689.8475 L1124.5719,1689.9345 L1124.21528,1689.6745 Z M1128.152,1689.4125 L1128.848,1689.2395 L1128.848,1689.7605 L1128.152,1689.4125 Z M1133.12527,1689.53812 L1133.2491,1689 L1133.93665,1689.30762 L1134,1689.84663 L1133,1690 L1133.12527,1689.53812 Z M1137.11,1689.5 L1137.37,1689 L1137.804,1689.16699 L1137.89,1689.58445 L1137.717,1689.91651 L1137.196,1690 L1137.11,1689.5 Z M1125.4565,1689.2835 L1125.8045,1689.7165 L1125.1955,1689.7165 L1125.4565,1689.2835 Z M1130.0225,1691.0655 L1130.5435,1691.1525 L1130.9775,1691.8465 L1130.6325,1691.9345 L1130.0225,1691.0655 Z M1134.3695,1691.93395 L1134.0225,1691 L1134.4555,1691.06759 L1134.9775,1692 L1134.3695,1691.93395 Z M1124.0225,1691.457 L1124.0225,1691.022 L1124.3695,1691.283 L1124.5445,1691.717 L1124.9775,1691.89 L1124.4555,1691.978 L1124.0225,1691.457 Z M1132.0225,1692.4565 L1132.4565,1692.0225 L1132.9775,1692.1955 L1132.7175,1692.7175 L1132.1965,1692.9775 L1132.0225,1692.4565 Z M1140.25096,1692.84588 L1140,1692.46058 L1140.08269,1692 L1140.83462,1692.46058 L1141,1692.84588 L1140.66731,1693 L1140.25096,1692.84588 Z M1125.197,1692.586 L1125.456,1692.326 L1125.803,1692.413 L1125.543,1692.674 L1125.197,1692.586 Z M1130.1105,1692.3695 L1130.6315,1692.2835 L1130.8895,1692.6305 L1130.3705,1692.7165 L1130.1105,1692.3695 Z M1130.2395,1693.153 L1130.7605,1693.153 L1130.6735,1693.673 L1130.2395,1693.847 L1130.2395,1693.153 Z M1128.4135,1693.2825 L1128.7605,1693.2825 L1128.5875,1693.7175 L1128.2395,1693.7175 L1128.4135,1693.2825 Z M1130.2395,1695.109 L1130.7605,1695.109 L1130.5885,1695.63 L1130.2395,1695.891 L1130.2395,1695.109 Z" id="Fill-1"></path>
        </g>
    </g>
</svg>