<?xml version="1.0" encoding="UTF-8"?>
<svg width="48px" height="77px" viewBox="0 0 48 77" version="1.1" xmlns="http://www.w3.org/2000/svg" xmlns:xlink="http://www.w3.org/1999/xlink">
    <!-- Generator: sketchtool 55.2 (78181) - https://sketchapp.com -->
    <title>1B654DE0-470B-4A02-9E9F-39C395B66024@1x</title>
    <desc>Created with sketchtool.</desc>
    <g id="UI-design" stroke="none" stroke-width="1" fill="none" fill-rule="evenodd">
        <g id="Homepage" transform="translate(-208.000000, -1695.000000)" fill="#F6BBD4">
            <path d="M236.052301,1695.12324 L236.300729,1703.4999 L236.673875,1704.97883 L237.29746,1705.34856 L240.290671,1709.41365 L240.414383,1710.3996 L242.908725,1712.00079 L243.157154,1712.61701 L242.908725,1713.11098 L243.657028,1713.35648 L245.526779,1715.45163 L246.897662,1716.06686 L247.521247,1717.29831 L249.640432,1719.02374 L249.889867,1719.51672 L249.889867,1720.87141 L250.388735,1721.1179 L251.260749,1721.1179 L253.630375,1724.93749 L254.877546,1727.89337 L254.628112,1729.00257 L255.376414,1730.11177 L255.874277,1733.19189 L256,1735.90227 L255.500126,1737.25697 L255.376414,1738.48942 L255.624843,1739.72087 L254.877546,1742.67874 L251.635906,1748.83798 L251.511189,1750.5634 L251.136032,1752.04134 L250.01559,1754.75173 L246.398793,1757.33887 L244.779482,1758.81681 L245.152628,1761.65044 L244.779482,1764.73056 L245.02791,1768.18041 L244.779482,1768.91889 L244.031179,1769.7816 L243.905456,1770.64431 L241.037968,1772 L239.667086,1771.75252 L230.441036,1772 L228.694996,1771.50603 L227.324114,1771.87576 L223.334171,1772 L220.467689,1771.13729 L219.470958,1770.27458 L219.095801,1769.28862 L218.722655,1766.33274 L218.847372,1760.1725 L218.472215,1758.44807 L213.611265,1754.382 L212.737239,1752.41108 L212.488811,1749.4542 L212.115665,1747.97626 L209.74604,1744.27893 L208.748303,1741.69179 L208.125723,1738.9814 L208.374151,1736.27201 L208,1735.16281 L208.25044,1731.8362 L209.870757,1726.41543 L211.116922,1723.5818 L212.737239,1720.99565 L214.733719,1718.77725 L216.976616,1716.80633 L218.472215,1716.80633 L219.220518,1715.3274 L219.968821,1715.3274 L220.218255,1715.94362 L219.470958,1717.17606 L219.719386,1718.53076 L219.095801,1720.0087 L219.095801,1723.08981 L219.470958,1724.44451 L220.467689,1725.55272 L222.586875,1726.41543 L224.08348,1726.41543 L225.455368,1725.7992 L226.327382,1724.691 L227.698265,1721.73412 L226.575811,1719.27023 L225.952225,1713.35648 L225.455368,1710.64609 L226.4521,1704.3636 L227.574554,1701.52898 L229.444305,1699.18833 L230.691476,1698.32561 L232.684938,1696.3547 L233.93211,1695.49298 L235.302992,1695 L236.052301,1695.12324 Z M219.220518,1741.07656 L218.223787,1742.06251 L217.849635,1743.41721 L218.472215,1747.2358 L220.841841,1748.59149 L222.33744,1748.96122 L224.581343,1748.71474 L227.199397,1747.2358 L228.446568,1745.88111 L228.197134,1743.41721 L226.950968,1742.80099 L219.968821,1741.1998 L219.220518,1741.07656 Z M225.703797,1762.88289 L225.952225,1763.62136 L226.4521,1764.11434 L227.698265,1764.60732 L231.56349,1764.36182 L233.05909,1764.60732 L234.181544,1765.22354 L234.680412,1764.73056 L237.049032,1764.23758 L238.046769,1763.37487 L235.302992,1762.88289 L225.703797,1762.88289 Z M226.327382,1739.47537 L226.826251,1738.85915 L225.952225,1738.85915 L226.327382,1739.47537 Z M232.560221,1749.33096 L231.31305,1749.94718 L230.316319,1751.05539 L229.942167,1753.14955 L230.316319,1753.76577 L233.558964,1753.76577 L234.181544,1753.39604 L234.181544,1752.53432 L232.810661,1749.94718 L232.560221,1749.33096 Z M230.939904,1720.87141 L231.56349,1719.7632 L231.688207,1719.02374 L230.691476,1718.77725 L230.441036,1720.25519 L230.939904,1720.87141 Z M232.311793,1718.16103 L232.684938,1717.66805 L232.560221,1716.92957 L231.688207,1716.92957 L231.56349,1717.79229 L232.311793,1718.16103 Z M232.810661,1728.63383 L232.560221,1727.77112 L231.936636,1727.15489 L231.688207,1727.89337 L232.062359,1728.38734 L232.810661,1728.63383 Z M231.688207,1731.5907 L232.063364,1731.5907 L232.063364,1731.09773 L231.688207,1731.09773 L231.688207,1731.5907 Z M232.311793,1710.89258 L232.810661,1711.26231 L233.682675,1711.01583 L234.181544,1710.3996 L233.434247,1710.02987 L232.684938,1710.15311 L232.311793,1710.89258 Z M232.810661,1714.71117 L233.558964,1714.46568 L233.682675,1713.60297 L233.05909,1713.60297 L232.810661,1714.09495 L232.810661,1714.71117 Z M235.054564,1717.91454 L234.554689,1718.16103 L233.93211,1717.91454 L234.306261,1718.654 L235.178275,1718.40751 L235.054564,1717.91454 Z M234.430978,1736.5185 L234.680412,1736.27201 L234.181544,1735.90227 L234.430978,1736.5185 Z M235.553432,1714.71117 L235.428715,1713.84946 L234.929847,1713.60297 L234.805129,1714.34243 L235.553432,1714.71117 Z M235.054564,1725.67695 L235.302992,1726.41543 L235.801861,1726.90841 L236.673875,1727.03165 L236.924315,1725.7992 L235.677144,1725.43047 L235.054564,1725.67695 Z M246.150365,1742.43225 L245.775207,1741.93827 L244.529042,1741.32205 L243.033442,1741.32205 L240.165954,1741.93827 L238.544632,1741.93827 L237.049032,1742.80099 L235.553432,1744.27893 L235.801861,1745.51137 L237.173749,1748.09851 L239.418657,1749.08447 L242.908725,1748.46825 L243.657028,1748.59149 L245.402062,1746.25084 L246.398793,1744.40317 L246.398793,1743.17072 L246.150365,1742.43225 Z M236.052301,1709.66014 L236.673875,1709.2914 L236.300729,1709.2914 L236.052301,1709.66014 Z M236.673875,1721.24115 L236.300729,1720.62492 L236.300729,1721.36439 L236.673875,1721.24115 Z M236.425446,1723.82829 L237.173749,1723.82829 L237.173749,1723.08882 L236.425446,1723.08882 L236.425446,1723.82829 Z M237.672618,1735.16281 L238.046769,1734.54658 L237.672618,1734.17784 L236.924315,1734.05361 L237.049032,1734.79307 L237.672618,1735.16281 Z M237.921046,1713.35648 L238.295197,1713.35648 L238.295197,1712.86449 L237.921046,1712.86449 L237.921046,1713.35648 Z M238.046769,1717.66805 L239.291929,1718.16103 L239.418657,1716.55984 L239.0435,1715.82037 L238.419915,1717.05282 L238.046769,1717.66805 Z M239.0435,1714.21919 L239.418657,1714.21919 L239.418657,1713.84946 L239.0435,1713.84946 L239.0435,1714.21919 Z M239.0435,1724.691 L239.667086,1724.691 L239.915514,1724.19802 L239.291929,1723.82829 L239.0435,1724.691 Z M239.0435,1727.89337 L239.418657,1727.89337 L239.418657,1727.40138 L239.0435,1727.40138 L239.0435,1727.89337 Z M239.418657,1711.26231 L239.915514,1711.26231 L239.667086,1710.64609 L239.418657,1711.26231 Z M240.914257,1732.45242 L239.915514,1732.45242 L240.042243,1733.06864 L240.663817,1732.9454 L240.914257,1732.45242 Z M241.037968,1715.3274 L241.537843,1715.3274 L241.786271,1714.71117 L241.037968,1714.71117 L241.037968,1715.3274 Z M241.537843,1730.35826 L242.28514,1730.35826 L242.28514,1729.74204 L241.537843,1729.74204 L241.537843,1730.35826 Z M242.908725,1727.89337 L243.657028,1727.77112 L244.031179,1727.15489 L243.407594,1726.90841 L242.784008,1727.15489 L242.908725,1727.89337 Z M244.529042,1727.64787 L245.276339,1727.52363 L245.402062,1727.03165 L244.779482,1726.78516 L244.529042,1727.64787 Z M247.022379,1722.72008 L247.521247,1722.72008 L247.521247,1722.2271 L247.022379,1722.2271 L247.022379,1722.72008 Z M249.640432,1737.87319 L250.140307,1737.99644 L250.512447,1737.6267 L250.01559,1737.50346 L249.640432,1737.87319 Z M251.260749,1732.69891 L251.635906,1732.69891 L251.635906,1732.20693 L251.260749,1732.20693 L251.260749,1732.69891 Z" id="Fill-2"></path>
        </g>
    </g>
</svg>