<?xml version="1.0" encoding="UTF-8"?>
<svg width="55px" height="56px" viewBox="0 0 55 56" version="1.1" xmlns="http://www.w3.org/2000/svg" xmlns:xlink="http://www.w3.org/1999/xlink">
    <!-- Generator: sketchtool 55.2 (78181) - https://sketchapp.com -->
    <title>8F92DD21-D965-46E0-A421-141A9304CD9F@1x</title>
    <desc>Created with sketchtool.</desc>
    <g id="UI-design" stroke="none" stroke-width="1" fill="none" fill-rule="evenodd">
        <g id="Homepage" transform="translate(-362.000000, -3584.000000)" fill="#F6BBD4">
            <g id="Group-32" transform="translate(0.000000, 2849.000000)">
                <g id="Group-28" transform="translate(390.000000, 762.500000) rotate(-223.000000) translate(-390.000000, -762.500000) translate(375.000000, 725.000000)">
                    <path d="M1.85241289,30 C1.56768177,30 1.26569423,29.9325304 0.980963108,29.7891575 C0.083628677,29.3168702 -0.26149995,28.2120554 0.213051912,27.3265168 C0.989591324,25.8843539 1.81790003,24.442191 2.59443944,23.0506303 C4.86366017,19.053056 7.20190662,14.9121088 8.84989581,10.6530898 C9.26405017,9.56514233 9.59192236,8.40972529 9.9456792,7.18683863 C10.5669107,5.06997967 11.1967705,2.89408479 12.3184385,0.929032448 C12.5945414,0.448311487 13.0690933,0.119397146 13.6212991,0.0266264343 C14.1735049,-0.0661442773 14.7429671,0.0856623417 15.1657497,0.448311487 C17.219265,2.19408761 18.1252277,5.45792992 19.0053057,8.62900152 C19.3849472,10.0205622 19.7645887,11.353087 20.1614866,12.2723604 C21.5420011,15.3506613 23.6214011,17.6024594 25.8388525,19.9891968 C27.098572,21.3554564 28.3928043,22.7638845 29.6266392,24.3831551 C30.2478707,25.2012241 30.0753064,26.3397737 29.2469977,26.9385665 C28.4273172,27.5373593 27.2538799,27.3602516 26.6412766,26.55905 C25.5109803,25.0747186 24.2685172,23.7337601 23.0691953,22.4349701 C20.7568335,19.9385946 18.3668177,17.3494484 16.7533414,13.722957 C16.2270202,12.5675399 15.8301223,11.1169433 15.4073397,9.58200973 C15.0708393,8.36755678 14.6911978,7.00129721 14.2425306,5.82057906 C13.9923124,6.58804586 13.7679788,7.37238006 13.5350169,8.18201536 C13.1726319,9.42176941 12.8016186,10.7121257 12.3270667,11.9350123 C10.6014236,16.4386087 8.1855232,20.6976277 5.86453319,24.8132738 C5.07936556,26.1964008 4.26831328,27.6216963 3.50040209,29.0301244 C3.17252989,29.6457846 2.5167855,30 1.85241289,30" id="Fill-58"></path>
                    <path d="M16.3937616,75 C15.6577616,75 14.9857616,74.520849 14.7457616,73.7336722 C12.6257616,66.8715448 12.7377616,59.3078034 12.8417616,51.9921938 C12.8897616,48.4413423 12.9377616,45.087285 12.7457616,41.8444592 C11.9617616,28.7875934 11.1457616,15.2858015 13.0737616,1.57010299 C13.2177616,0.560463292 14.0897616,-0.132594463 15.0417616,0.0214183711 C15.9857616,0.175431206 16.6337616,1.11662075 16.4897616,2.11770417 C14.6257616,15.4398144 15.4257616,28.744812 16.1937616,41.6048837 C16.3937616,44.9931661 16.3457616,48.5782426 16.2977616,52.0520876 C16.2017616,59.0596716 16.0977616,66.3068311 18.0257616,72.578576 C18.3297616,73.5454343 17.8337616,74.5978554 16.9217616,74.9144373 C16.7457616,74.9743312 16.5617616,75 16.3937616,75" id="Fill-59"></path>
                </g>
            </g>
        </g>
    </g>
</svg>