<?xml version="1.0" encoding="UTF-8"?>
<svg width="51px" height="60px" viewBox="0 0 51 60" version="1.1" xmlns="http://www.w3.org/2000/svg" xmlns:xlink="http://www.w3.org/1999/xlink">
    <!-- Generator: sketchtool 55.2 (78181) - https://sketchapp.com -->
    <title>9A3506F2-7530-4131-9A74-A2F4B0C8D499@1x</title>
    <desc>Created with sketchtool.</desc>
    <g id="UI-design" stroke="none" stroke-width="1" fill="none" fill-rule="evenodd">
        <g id="Homepage" transform="translate(-1033.000000, -3582.000000)" fill="#F6BBD4">
            <g id="Group-32" transform="translate(0.000000, 2849.000000)">
                <g id="Group-22" transform="translate(1057.500000, 762.500000) rotate(-150.000000) translate(-1057.500000, -762.500000) translate(1048.000000, 725.000000)">
                    <path d="M17.1579503,34 C17.1409568,34 17.1324601,34 17.1324601,34 C16.1128542,33.9826132 15.3056662,33.1306604 15.3226597,32.0961463 C15.4076268,25.4978586 14.5324651,18.3692738 13.6912902,11.4841041 C13.5468461,10.3365758 13.4108986,9.17166072 13.2664544,8.00674564 C11.1847591,12.1882692 9.28149475,16.595821 7.420714,20.8990521 C6.15470335,23.8461133 4.82921569,26.8974954 3.49523132,29.7923963 C3.0534021,30.7225897 1.96582248,31.1224859 1.04817717,30.6791227 C0.130531871,30.2357595 -0.251820339,29.1143114 0.17301545,28.184118 C1.49850311,25.3413775 2.80699734,22.3073822 4.06451127,19.3777078 C6.75797017,13.1532361 9.53639623,6.71142962 12.8671088,0.930321214 C13.2664544,0.226156129 14.0651457,-0.130273111 14.8468436,0.043594811 C15.6200447,0.226156129 16.1978214,0.886854233 16.2657951,1.70403347 C16.5631802,4.72064192 16.9370357,7.78071735 17.3278846,11.0233541 C18.1945496,18.0302314 19.0867048,25.2805237 18.9932409,32.1483066 C18.9762474,33.1741274 18.152066,34 17.1579503,34" id="Fill-60"></path>
                    <path d="M1.98658184,75 C0.996077713,75 0.161968972,74.225082 0.109837175,73.2349089 C-0.428858053,63.1954151 1.11771857,51.8643912 2.49052254,41.8679484 C2.68167246,40.4472653 2.87282238,39.0438026 3.05528367,37.6575603 C4.75825568,24.8886329 7.32140233,14.8577493 11.3876824,5.15405328 C11.7873595,4.20693122 12.8908159,3.7505906 13.8465655,4.13804962 C14.8023151,4.53411884 15.254124,5.62761431 14.8544469,6.57473637 C10.9184963,15.9770754 8.42485869,25.7152122 6.77401847,38.1483417 C6.59155718,39.534584 6.40040726,40.9380467 6.20925734,42.36734 C4.86251927,52.2087992 3.34200855,63.3503987 3.86332651,73.0368743 C3.90676967,74.0614881 3.1161041,74.9397286 2.0821568,74.9913898 C2.04740227,74.9913898 2.01264774,75 1.98658184,75" id="Fill-61"></path>
                </g>
            </g>
        </g>
    </g>
</svg>