<?xml version="1.0" encoding="UTF-8"?>
<svg width="464px" height="236px" viewBox="0 0 464 236" version="1.1" xmlns="http://www.w3.org/2000/svg" xmlns:xlink="http://www.w3.org/1999/xlink">
    <!-- Generator: sketchtool 55.2 (78181) - https://sketchapp.com -->
    <title>AD9315CE-5A57-47A6-9BE4-AE13954F1275@1x</title>
    <desc>Created with sketchtool.</desc>
    <g id="UI-design" stroke="none" stroke-width="1" fill="none" fill-rule="evenodd">
        <g id="Homepage" transform="translate(-489.000000, -3692.000000)" stroke="#12110C">
            <g id="Group-32" transform="translate(0.000000, 2849.000000)">
                <path d="M518.692558,918.974754 C521.823612,907.757998 519.912567,910.399655 535.527198,898.589385 C563.431602,877.483633 610.46945,848.274387 648.637777,847.229809 C696.940286,845.907882 804.474192,838.371606 874.067252,852.23399 C880.968487,853.608662 888.185656,854.707377 894.335551,857.862663 C922.020263,872.066678 933.291371,900.507083 939.121759,926.746504 C943.072431,944.526341 953.305533,984.405309 951.861486,1008.11191 C951.744823,1010.02716 950.268408,1011.81837 948.691721,1013.09684 C942.593202,1018.04186 936.397169,1023.1291 929.133206,1026.54128 C914.385262,1033.46899 898.248198,1037.66297 883.127624,1043.89498 C861.003275,1053.01362 846.563165,1061.47601 822.277227,1064.12904 C814.181279,1065.01345 806.032195,1065.52197 797.883682,1065.80444 C767.693554,1066.85098 737.238773,1064.55311 707.282988,1068.11533 C685.228457,1070.73796 712.437069,1078.4359 710.207059,1077.98064 C679.624949,1071.73716 713.380784,1079.45574 688.18553,1066.61875 C687.16997,1066.10132 686.834917,1068.77879 685.670951,1068.8196 C678.025762,1069.08766 670.32785,1068.55213 662.763708,1067.51009 C630.944247,1063.12665 599.263668,1057.92672 567.628278,1052.55807 C546.167749,1048.91613 506.132989,1043.04805 495.858114,1021.71867 C486.125921,1001.51583 490.99194,995.739188 493.046274,967.632788 C494.167229,952.296424 498.921011,942.927265 506.204592,929.079405 L518.692558,918.974754 Z" id="Path-2"></path>
            </g>
        </g>
    </g>
</svg>