<?xml version="1.0" encoding="UTF-8"?>
<svg width="91px" height="153px" viewBox="0 0 91 153" version="1.1" xmlns="http://www.w3.org/2000/svg" xmlns:xlink="http://www.w3.org/1999/xlink">
    <!-- Generator: sketchtool 55.2 (78181) - https://sketchapp.com -->
    <title>062AF6F0-4267-4257-AC96-4D31E483556C@1x</title>
    <desc>Created with sketchtool.</desc>
    <g id="UI-design" stroke="none" stroke-width="1" fill="none" fill-rule="evenodd">
        <g id="Homepage" transform="translate(-665.000000, -3446.000000)" fill="#F6BBD4" stroke="#F6BBD4" stroke-width="2">
            <g id="Group-32" transform="translate(0.000000, 2849.000000)">
                <g id="Group-29" transform="translate(665.710692, 598.000000)">
                    <path d="M35.4284974,44.675182 C34.7299655,51.251675 35.16826,62.4025431 45.6188441,64.6963602 C52.809613,66.2741882 64.273753,61.5009271 68.7251814,55.0570247 C70.4646626,52.5510627 70.8755637,49.7534014 69.9304912,46.9822582 C68.7114847,43.3757943 65.2736123,40.1140659 61.1509048,38.6820876 C52.0015075,35.4733955 42.8932003,39.2389681 35.4284974,44.675182 Z M21.8206833,145 C14.640872,145 10.8859132,129.17149 8.16253654,113.663287 C8.02499226,112.889212 7.92871126,112.248597 7.83243027,111.781483 C5.5629497,99.9568119 5.79677497,88.6926783 8.53390608,78.3093894 C11.4360903,67.1920632 17.1304234,57.3826578 25.4518522,49.1614419 C27.5425252,47.0927917 29.8807779,44.9841032 32.4391015,43.0489144 C32.6041546,41.9011472 32.7967166,40.7667262 33.0442963,39.6456513 C36.3453589,24.7113321 46.1797748,11.1917026 58.696304,4.38517636 C62.8226323,2.14302655 68.3381578,-0.379391983 74.390106,0.0476841707 C80.9097048,0.514798714 83.7706257,3.731216 87.3742858,7.81513172 C87.8694452,8.3890153 88.378359,8.96289888 88.9422906,9.59016698 C89.4512044,10.1640506 89.3961867,11.0448951 88.8047463,11.5387019 C88.2270603,12.0458549 87.3192681,11.9924703 86.7828454,11.4185868 C86.2189139,10.8046648 85.6962456,10.204089 85.2010862,9.63020537 C81.6661983,5.62636643 79.5205076,3.19737081 74.1700352,2.82367917 C68.9020894,2.43664141 63.8817232,4.74552186 60.1130101,6.80082585 C48.2704478,13.2470065 38.9862091,26.0592912 35.8501995,40.232881 C35.8226907,40.3663423 35.7814274,40.5264959 35.7401641,40.7133417 C43.4426436,35.6685046 52.5893381,32.5722025 61.9561034,35.8820427 C66.9764695,37.6437318 71.0065168,41.5007633 72.5332583,45.9717168 C73.7574024,49.6285564 73.2209797,53.2720498 70.979008,56.5285055 C65.8486064,63.9489537 53.1120063,69.2340211 44.7355599,67.3922552 C34.8461263,65.216836 31.7651345,56.1014294 32.0952408,46.9192921 C30.4584639,48.2805973 28.9042135,49.7086332 27.4875075,51.1099768 C12.1100573,66.2978725 6.12688123,87.6650264 10.6383335,111.287676 C10.7346145,111.754791 10.8584044,112.395405 10.9959486,113.196173 C15.4248744,138.44705 19.6749925,142.224005 21.8206833,142.224005 L21.8344377,142.224005 C22.6184401,142.224005 23.2511437,142.851273 23.2511437,143.612003 C23.2511437,144.386078 22.6184401,145 21.8344377,145 L21.8206833,145 L21.8206833,145 Z" id="Fill-86"></path>
                    <path d="M25.9003006,151 C21.4337247,151 13.7956158,145.592987 1.96844009,134.23532 C1.42663651,133.721066 1.01698015,133.324356 0.792329886,133.118654 C0.210882144,132.589707 0.118379094,131.619971 0.594109065,130.973481 C1.06983904,130.312297 1.94201065,130.224139 2.53667311,130.753086 C2.7745381,130.973481 3.19740918,131.370191 3.76564221,131.913831 C22.0812461,149.530703 26.1381656,148.369958 26.9442636,147.605924 C27.6710732,146.885968 26.9178341,143.506585 26.5874661,142.066674 C26.4288894,141.346718 26.2835275,140.71492 26.2174539,140.200666 C25.1999203,132.854181 24.4466812,123.435986 27.6578585,115.869106 C27.9882266,115.119765 28.820754,114.781826 29.4947048,115.149151 C30.1818703,115.516475 30.4858089,116.427439 30.1554409,117.191474 C27.2482022,123.994319 27.9750118,132.824795 28.9396865,139.745184 C28.9925454,140.112508 29.1114779,140.685534 29.2568398,141.317332 C29.8911464,144.12369 30.7633181,147.973248 28.7414657,149.91272 C27.9882266,150.632676 27.0499813,151 25.9003006,151" id="Fill-87"></path>
                </g>
            </g>
        </g>
    </g>
</svg>